<svg xmlns="http://www.w3.org/2000/svg" version="1.1" xmlns:xlink="http://www.w3.org/1999/xlink" xmlns:svgjs="http://svgjs.dev/svgjs" width="1440" height="560" preserveAspectRatio="none" viewBox="0 0 1440 560"><g mask="url(&quot;#SvgjsMask1018&quot;)" fill="none"><rect width="1440" height="560" x="0" y="0" fill="rgba(227, 207, 173, 1)"></rect><path d="M1488 560L0 560 L0 368.27Q68.01 316.28, 120 384.3Q164.19 356.5, 192 400.69Q225.61 314.3, 312 347.91Q365.85 281.76, 432 335.62Q494.43 326.05, 504 388.47Q504.98 317.45, 576 318.43Q622.76 245.19, 696 291.95Q785.48 261.43, 816 350.91Q863.4 326.31, 888 373.71Q941.25 354.95, 960 408.2Q971.26 347.47, 1032 358.73Q1074.78 281.5, 1152 324.28Q1196.16 296.44, 1224 340.61Q1284.58 329.19, 1296 389.76Q1310.89 284.65, 1416 299.54Q1442.29 253.83, 1488 280.11z" fill="rgba(105, 78, 33, 0.31)"></path><path d="M1464 560L0 560 L0 436.46Q40.03 404.49, 72 444.51Q125.53 426.04, 144 479.58Q150.25 413.83, 216 420.08Q264.21 348.29, 336 396.51Q362.15 350.66, 408 376.82Q463.87 360.69, 480 416.55Q548.55 413.1, 552 481.65Q593.22 402.87, 672 444.08Q738.86 390.94, 792 457.8Q817.9 363.7, 912 389.6Q942.47 348.07, 984 378.54Q1035.38 357.93, 1056 409.31Q1122.11 403.42, 1128 469.53Q1177.62 447.15, 1200 496.77Q1208.99 385.76, 1320 394.75Q1350.07 352.81, 1392 382.88Q1457.93 376.81, 1464 442.74z" fill="rgba(128, 99, 49, 0.27)"></path><path d="M1488 560L0 560 L0 515.08Q42.33 485.41, 72 527.74Q138.2 521.94, 144 588.14Q182.26 506.4, 264 544.66Q294.95 455.61, 384 486.55Q459.06 441.61, 504 516.66Q594.77 487.43, 624 578.2Q673.03 507.23, 744 556.26Q774.64 514.9, 816 545.54Q818.15 475.69, 888 477.85Q954.27 424.13, 1008 490.4Q1053.8 464.19, 1080 509.99Q1165.09 475.08, 1200 560.17Q1200.52 488.68, 1272 489.2Q1298.42 443.62, 1344 470.04Q1401.26 455.3, 1416 512.56Q1481.95 506.5, 1488 572.45z" fill="rgba(97, 74, 35, 0.36)"></path></g><defs><mask id="SvgjsMask1018"><rect width="1440" height="560" fill="#ffffff"></rect></mask></defs></svg>